<svg width="25" height="23" viewBox="0 0 46 41" fill="none" xmlns="http://www.w3.org/2000/svg">
<path d="M23 2.66602V10.2315" stroke="black" stroke-width="4" stroke-linecap="round" stroke-linejoin="round"/>
<path d="M6.2002 10.2305L11.4502 14.9589" stroke="black" stroke-width="4" stroke-linecap="round" stroke-linejoin="round"/>
<path d="M34.5498 14.9589L39.7998 10.2305" stroke="black" stroke-width="4" stroke-linecap="round" stroke-linejoin="round"/>
<path d="M4.09961 27.2539H10.3996" stroke="black" stroke-width="4" stroke-linecap="round" stroke-linejoin="round"/>
<path d="M23 27.2544L25.1 15.9062" stroke="black" stroke-width="4" stroke-linecap="round" stroke-linejoin="round"/>
<path d="M35.5996 27.2539H41.8996" stroke="black" stroke-width="4" stroke-linecap="round" stroke-linejoin="round"/>
<path d="M15.65 32.9297H6.2C3.56278 29.7683 2 25.8383 2 21.5797C2 11.1339 11.402 2.66602 23 2.66602C34.5979 2.66602 44 11.1339 44 21.5797C44 25.8383 42.4372 29.7683 39.8 32.9297L30.35 32.9279" stroke="#869C66" stroke-width="4" stroke-linecap="round" stroke-linejoin="round"/>
<path d="M23.0002 38.6021C26.4797 38.6021 29.3002 36.0618 29.3002 32.928C29.3002 29.7942 26.4797 27.2539 23.0002 27.2539C19.5207 27.2539 16.7002 29.7942 16.7002 32.928C16.7002 36.0618 19.5207 38.6021 23.0002 38.6021Z" stroke="black" stroke-width="4" stroke-linecap="round" stroke-linejoin="round"/>
</svg>
